# xmcd
#
# Track frame offsets:
#	150
#	13509
#	31138
#	43146
#	60999
#	71325
#	83549
#	110310
#	132302
#	145893
#
# Disc length: 2242 seconds
#
# Revision: 0
# Processed by: cddbd v1.5.2PL0 Copyright (c) Steve Scherf et al.
# Submitted via: EasyCDDAExtractor 10.0.2.1
#
DISCID=7808c00a
DTITLE=Alice Cooper - Michigan State Fairgrounds Detroit MI 24-08-06 Master Di
DTITLE=sc 2
DYEAR=2006
DGENRE=Hard Rock
TTITLE0=Welcome To My Nightmare
TTITLE1=The Awakening
TTITLE2=Only Women Bleed
TTITLE3=Ballad Of Dwight Fry
TTITLE4=Killer
TTITLE5=I Love The Dead
TTITLE6=School's Out
TTITLE7=Poison
TTITLE8=Wish I Were Born In Beverly Hills
TTITLE9=Under My Wheels
EXTD=
EXTT0=
EXTT1=
EXTT2=
EXTT3=
EXTT4=
EXTT5=
EXTT6=
EXTT7=
EXTT8=
EXTT9=
PLAYORDER=
